# xmcd
#
# Track frame offsets:
#	150
#	14250
#	29400
#	46050
#	63750
#	93300
#	108600
#	126450
#	139800
#	153600
#	175050
#	193650
#	218100
#	233700
#
# Disc length: 3326 seconds
#
# Revision: 1
# Processed by: cddbd v1.5.1PL0 Copyright (c) Steve Scherf et al.
# Submitted via: EasyCDDAExtractor 7.0.3.1
#
DISCID=bf0cfc0e
DTITLE=George Kilby Jr.
DYEAR=2003
DGENRE=Blues
TTITLE0=She's my Bartender
TTITLE1=The Shimmy
TTITLE2=Manhattan
TTITLE3=Love me Right
TTITLE4=3:33 Blues
TTITLE5=Shut Yo' Mouth
TTITLE6=She's Inside
TTITLE7=You ain't Fooling Me
TTITLE8=Falling in Love Again
TTITLE9=Take a little Swing
TTITLE10=The Shape Im In
TTITLE11=Drink and Drink
TTITLE12=3 Finger Boogie
TTITLE13=New Orleans, La.
EXTD=
EXTT0=
EXTT1=
EXTT2=
EXTT3=
EXTT4=
EXTT5=
EXTT6=
EXTT7=
EXTT8=
EXTT9=
EXTT10=
EXTT11=
EXTT12=
EXTT13=
PLAYORDER=
